<?xml version="1.0" encoding="utf-8"?>
<!-- Generator: Adobe Illustrator 15.1.0, SVG Export Plug-In . SVG Version: 6.00 Build 0)  -->
<!DOCTYPE svg PUBLIC "-//W3C//DTD SVG 1.1//EN" "http://www.w3.org/Graphics/SVG/1.1/DTD/svg11.dtd">
<svg version="1.1" id="Layer_1" xmlns="http://www.w3.org/2000/svg" xmlns:xlink="http://www.w3.org/1999/xlink" x="0px" y="0px"
	 width="751.111px" height="588.889px" viewBox="0 0 751.111 588.889" enable-background="new 0 0 751.111 588.889"
	 xml:space="preserve">
<g>
	<path fill="#FFFFFF" d="M387.131,407.166l0.58-5.123c0.395-5.542,0.714-14.087,0.987-25.614
		c0.919-26.466,5.27-62.968,13.042-109.505c7.77-46.529,16.257-86.663,25.466-120.392c23.362-84.95,50.911-127.436,82.659-127.436
		c8.335,0,16.593,2.67,24.766,8.005c8.173,5.342,14.081,12.066,17.726,20.171c5.38,11.958,3.569,17.931-5.403,17.931
		c-8.98,0-15.864-5.333-20.667-16.01l-1.729-3.842c-0.641-2.131-1.532-4.482-2.688-7.044c-3.26-7.254-7.781-10.886-13.554-10.886
		c-25.333,0-48.679,35.44-70.035,106.302c-15.058,49.95-26.721,105.662-34.986,167.139c-8.27,61.477-11.359,113.779-9.288,156.896
		c0.25,5.551-1.066,8.322-3.952,8.322c-3.532,0-8.098-2.66-13.699-8.003c-5.609-5.333-9.852-11.208-12.73-17.611
		c-3.068-6.824-5.081-14.508-6.038-23.053c-0.953-8.536-2.059-29.879-3.308-64.037c-0.685-20.062-1.333-49.312-1.934-87.732
		l-0.718-55.073c-1.315-102.031-3.792-157.105-7.442-165.219c-1.791-6.824-2.2-9.175-1.245-7.044c-1.221-1.281-1.99-1.92-2.305-1.92
		c-0.962,0-2.251,8.545-3.876,25.614c-8.93,89.233-22.636,165.009-41.1,227.335c-36.547,123.384-77.406,185.073-162.377,185.073
		c-24.372,0-47.179-6.516-68.429-19.533c-21.243-13.018-36.571-29.988-45.979-50.911c-4.033-8.963-5.71-16.969-5.029-24.014
		c0.682-7.045,3.584-10.566,8.717-10.566c9.62,0,17.215,6.193,22.781,18.572c3.65,8.114,2.836,16.649-2.431,25.613
		c-1.992,3.423-2.122,7.045-0.395,10.889c4.421,9.824,15.087,19.641,32.009,29.457c15.25,8.966,32.019,13.446,50.299,13.446
		c74.387,0,111.715-54.211,151.773-162.655c22.307-60.196,40.375-144.086,54.205-251.671c2.394-17.499,4.71-26.255,6.957-26.255
		c2.885,0,7.414,3.842,13.599,11.527c6.174,7.684,11.1,15.59,14.746,23.693c6.144,13.669,10.385,32.019,12.742,55.073
		c2.349,23.055,3.882,64.26,4.591,123.595l1.626,112.708C385.249,364.48,385.932,382.411,387.131,407.166z"/>
</g>
<g>
	<path fill="#FFFFFF" d="M562.926,502.855l0.578-5.123c0.397-5.542,0.717-14.087,0.988-25.616
		c0.918-26.467,5.271-62.969,13.041-109.504c7.774-46.527,16.262-86.662,25.47-120.393c23.363-84.949,50.911-127.436,82.656-127.436
		c8.338,0,16.593,2.671,24.765,8.005c8.175,5.342,14.081,12.066,17.726,20.172c5.382,11.958,3.572,17.93-5.403,17.93
		c-8.979,0-15.861-5.333-20.662-16.009l-1.729-3.843c-0.645-2.131-1.532-4.482-2.687-7.044c-3.262-7.254-7.782-10.886-13.557-10.886
		c-25.333,0-48.679,35.441-70.034,106.304c-15.06,49.948-26.722,105.662-34.986,167.138c-8.271,61.479-11.358,113.777-9.289,156.894
		c0.25,5.554-1.066,8.325-3.951,8.325c-3.53,0-8.1-2.663-13.702-8.006c-5.607-5.331-9.85-11.204-12.728-17.607
		c-3.069-6.825-5.081-14.509-6.039-23.054c-0.953-8.536-2.059-29.88-3.307-64.037c-0.687-20.065-1.333-49.312-1.936-87.735
		l-0.718-55.072c-1.315-102.031-3.791-157.104-7.441-165.219c-1.791-6.824-2.2-9.174-1.244-7.044c-1.221-1.281-1.99-1.92-2.306-1.92
		c-0.962,0-2.251,8.544-3.875,25.614c-8.93,89.232-22.636,165.01-41.101,227.336C434.909,508.41,394.05,570.095,309.079,570.095
		c-24.372,0-47.178-6.516-68.429-19.529c-21.243-13.021-36.571-29.99-45.979-50.911c-4.033-8.967-5.71-16.971-5.029-24.015
		c0.682-7.047,3.584-10.565,8.717-10.565c9.619,0,17.215,6.192,22.781,18.571c3.65,8.111,2.836,16.647-2.431,25.613
		c-1.992,3.422-2.122,7.042-0.395,10.886c4.421,9.825,15.087,19.641,32.008,29.457c15.251,8.966,32.02,13.448,50.3,13.448
		c74.387,0,111.716-54.213,151.774-162.657c22.305-60.194,40.375-144.084,54.204-251.669c2.394-17.5,4.71-26.254,6.956-26.254
		c2.886,0,7.414,3.842,13.6,11.526c6.173,7.685,11.099,15.59,14.745,23.694c6.144,13.668,10.387,32.02,12.742,55.073
		c2.35,23.054,3.88,64.259,4.594,123.593l1.626,112.71C561.043,460.17,561.727,478.099,562.926,502.855z"/>
</g>
</svg>
